<mxfile host="app.diagrams.net" modified="2023-12-07T01:36:46.559Z" agent="Mozilla/5.0 (Windows NT 10.0; Win64; x64) AppleWebKit/537.36 (KHTML, like Gecko) Chrome/119.0.0.0 Safari/537.36" etag="D7FbV_Ri2KbYf2ylzvsI" version="22.1.7" type="device">
  <diagram id="C5RBs43oDa-KdzZeNtuy" name="Page-1">
    <mxGraphModel dx="4347" dy="1784" grid="1" gridSize="10" guides="1" tooltips="1" connect="1" arrows="1" fold="1" page="1" pageScale="1" pageWidth="827" pageHeight="1169" math="0" shadow="0">
      <root>
        <mxCell id="WIyWlLk6GJQsqaUBKTNV-0" />
        <mxCell id="WIyWlLk6GJQsqaUBKTNV-1" parent="WIyWlLk6GJQsqaUBKTNV-0" />
        <mxCell id="fc012hO8-HCPunmbhdEc-6" style="edgeStyle=orthogonalEdgeStyle;rounded=0;orthogonalLoop=1;jettySize=auto;html=1;exitX=0.5;exitY=1;exitDx=0;exitDy=0;entryX=0.5;entryY=0;entryDx=0;entryDy=0;" edge="1" parent="WIyWlLk6GJQsqaUBKTNV-1" source="fc012hO8-HCPunmbhdEc-2" target="fc012hO8-HCPunmbhdEc-5">
          <mxGeometry relative="1" as="geometry" />
        </mxCell>
        <mxCell id="fc012hO8-HCPunmbhdEc-2" value="start" style="ellipse;whiteSpace=wrap;html=1;" vertex="1" parent="WIyWlLk6GJQsqaUBKTNV-1">
          <mxGeometry x="-540" y="50" width="120" height="80" as="geometry" />
        </mxCell>
        <mxCell id="fc012hO8-HCPunmbhdEc-7" style="edgeStyle=orthogonalEdgeStyle;rounded=0;orthogonalLoop=1;jettySize=auto;html=1;exitX=0.5;exitY=1;exitDx=0;exitDy=0;" edge="1" parent="WIyWlLk6GJQsqaUBKTNV-1" source="fc012hO8-HCPunmbhdEc-5">
          <mxGeometry relative="1" as="geometry">
            <mxPoint x="-490" y="300" as="targetPoint" />
          </mxGeometry>
        </mxCell>
        <mxCell id="fc012hO8-HCPunmbhdEc-5" value="choice,n,&lt;br&gt;books[100]" style="shape=parallelogram;perimeter=parallelogramPerimeter;whiteSpace=wrap;html=1;fixedSize=1;" vertex="1" parent="WIyWlLk6GJQsqaUBKTNV-1">
          <mxGeometry x="-550" y="200" width="120" height="60" as="geometry" />
        </mxCell>
        <mxCell id="fc012hO8-HCPunmbhdEc-9" value="true" style="edgeStyle=orthogonalEdgeStyle;rounded=0;orthogonalLoop=1;jettySize=auto;html=1;" edge="1" parent="WIyWlLk6GJQsqaUBKTNV-1" source="fc012hO8-HCPunmbhdEc-8">
          <mxGeometry relative="1" as="geometry">
            <mxPoint x="-380" y="350" as="targetPoint" />
          </mxGeometry>
        </mxCell>
        <mxCell id="fc012hO8-HCPunmbhdEc-11" value="false" style="edgeStyle=orthogonalEdgeStyle;rounded=0;orthogonalLoop=1;jettySize=auto;html=1;" edge="1" parent="WIyWlLk6GJQsqaUBKTNV-1" source="fc012hO8-HCPunmbhdEc-8">
          <mxGeometry relative="1" as="geometry">
            <mxPoint x="-490" y="450" as="targetPoint" />
          </mxGeometry>
        </mxCell>
        <mxCell id="fc012hO8-HCPunmbhdEc-8" value="choice==1" style="rhombus;whiteSpace=wrap;html=1;" vertex="1" parent="WIyWlLk6GJQsqaUBKTNV-1">
          <mxGeometry x="-530" y="310" width="80" height="80" as="geometry" />
        </mxCell>
        <mxCell id="fc012hO8-HCPunmbhdEc-40" style="edgeStyle=orthogonalEdgeStyle;rounded=0;orthogonalLoop=1;jettySize=auto;html=1;" edge="1" parent="WIyWlLk6GJQsqaUBKTNV-1" source="fc012hO8-HCPunmbhdEc-10">
          <mxGeometry relative="1" as="geometry">
            <mxPoint x="-110" y="940" as="targetPoint" />
          </mxGeometry>
        </mxCell>
        <mxCell id="fc012hO8-HCPunmbhdEc-10" value="inputsach(books,n)" style="rounded=0;whiteSpace=wrap;html=1;" vertex="1" parent="WIyWlLk6GJQsqaUBKTNV-1">
          <mxGeometry x="-370" y="320" width="120" height="60" as="geometry" />
        </mxCell>
        <mxCell id="fc012hO8-HCPunmbhdEc-13" value="true" style="edgeStyle=orthogonalEdgeStyle;rounded=0;orthogonalLoop=1;jettySize=auto;html=1;" edge="1" parent="WIyWlLk6GJQsqaUBKTNV-1" source="fc012hO8-HCPunmbhdEc-12">
          <mxGeometry relative="1" as="geometry">
            <mxPoint x="-360" y="490" as="targetPoint" />
          </mxGeometry>
        </mxCell>
        <mxCell id="fc012hO8-HCPunmbhdEc-15" value="false" style="edgeStyle=orthogonalEdgeStyle;rounded=0;orthogonalLoop=1;jettySize=auto;html=1;" edge="1" parent="WIyWlLk6GJQsqaUBKTNV-1" source="fc012hO8-HCPunmbhdEc-12">
          <mxGeometry relative="1" as="geometry">
            <mxPoint x="-490" y="600" as="targetPoint" />
          </mxGeometry>
        </mxCell>
        <mxCell id="fc012hO8-HCPunmbhdEc-12" value="choice=2" style="rhombus;whiteSpace=wrap;html=1;" vertex="1" parent="WIyWlLk6GJQsqaUBKTNV-1">
          <mxGeometry x="-530" y="450" width="80" height="80" as="geometry" />
        </mxCell>
        <mxCell id="fc012hO8-HCPunmbhdEc-30" style="edgeStyle=orthogonalEdgeStyle;rounded=0;orthogonalLoop=1;jettySize=auto;html=1;" edge="1" parent="WIyWlLk6GJQsqaUBKTNV-1" source="fc012hO8-HCPunmbhdEc-14">
          <mxGeometry relative="1" as="geometry">
            <mxPoint x="-120" y="490" as="targetPoint" />
          </mxGeometry>
        </mxCell>
        <mxCell id="fc012hO8-HCPunmbhdEc-14" value="luuthongtinsach(books,n)" style="rounded=0;whiteSpace=wrap;html=1;" vertex="1" parent="WIyWlLk6GJQsqaUBKTNV-1">
          <mxGeometry x="-350" y="460" width="160" height="60" as="geometry" />
        </mxCell>
        <mxCell id="fc012hO8-HCPunmbhdEc-20" value="false" style="edgeStyle=orthogonalEdgeStyle;rounded=0;orthogonalLoop=1;jettySize=auto;html=1;exitX=0.5;exitY=1;exitDx=0;exitDy=0;" edge="1" parent="WIyWlLk6GJQsqaUBKTNV-1" source="fc012hO8-HCPunmbhdEc-16">
          <mxGeometry relative="1" as="geometry">
            <mxPoint x="-490" y="740" as="targetPoint" />
          </mxGeometry>
        </mxCell>
        <mxCell id="fc012hO8-HCPunmbhdEc-16" value="choice==3" style="rhombus;whiteSpace=wrap;html=1;" vertex="1" parent="WIyWlLk6GJQsqaUBKTNV-1">
          <mxGeometry x="-530" y="600" width="80" height="80" as="geometry" />
        </mxCell>
        <mxCell id="fc012hO8-HCPunmbhdEc-17" value="true" style="edgeStyle=orthogonalEdgeStyle;rounded=0;orthogonalLoop=1;jettySize=auto;html=1;" edge="1" parent="WIyWlLk6GJQsqaUBKTNV-1" source="fc012hO8-HCPunmbhdEc-16">
          <mxGeometry relative="1" as="geometry">
            <mxPoint x="-400" y="640" as="targetPoint" />
          </mxGeometry>
        </mxCell>
        <mxCell id="fc012hO8-HCPunmbhdEc-29" style="edgeStyle=orthogonalEdgeStyle;rounded=0;orthogonalLoop=1;jettySize=auto;html=1;exitX=1;exitY=0.5;exitDx=0;exitDy=0;" edge="1" parent="WIyWlLk6GJQsqaUBKTNV-1" source="fc012hO8-HCPunmbhdEc-19">
          <mxGeometry relative="1" as="geometry">
            <mxPoint x="-120" y="650" as="targetPoint" />
          </mxGeometry>
        </mxCell>
        <mxCell id="fc012hO8-HCPunmbhdEc-19" value="hienthithongtinsachtufile()" style="rounded=0;whiteSpace=wrap;html=1;" vertex="1" parent="WIyWlLk6GJQsqaUBKTNV-1">
          <mxGeometry x="-400" y="620" width="260" height="60" as="geometry" />
        </mxCell>
        <mxCell id="fc012hO8-HCPunmbhdEc-22" value="true" style="edgeStyle=orthogonalEdgeStyle;rounded=0;orthogonalLoop=1;jettySize=auto;html=1;" edge="1" parent="WIyWlLk6GJQsqaUBKTNV-1" source="fc012hO8-HCPunmbhdEc-21">
          <mxGeometry relative="1" as="geometry">
            <mxPoint x="-380" y="780" as="targetPoint" />
            <Array as="points">
              <mxPoint x="-420" y="780" />
              <mxPoint x="-420" y="781" />
            </Array>
          </mxGeometry>
        </mxCell>
        <mxCell id="fc012hO8-HCPunmbhdEc-39" style="edgeStyle=orthogonalEdgeStyle;rounded=0;orthogonalLoop=1;jettySize=auto;html=1;" edge="1" parent="WIyWlLk6GJQsqaUBKTNV-1">
          <mxGeometry relative="1" as="geometry">
            <mxPoint x="-490.25" y="942" as="targetPoint" />
            <mxPoint x="-490.75" y="800" as="sourcePoint" />
            <Array as="points">
              <mxPoint x="-490.25" y="940" />
              <mxPoint x="-489.25" y="940" />
            </Array>
          </mxGeometry>
        </mxCell>
        <mxCell id="fc012hO8-HCPunmbhdEc-21" value="choice==4" style="rhombus;whiteSpace=wrap;html=1;" vertex="1" parent="WIyWlLk6GJQsqaUBKTNV-1">
          <mxGeometry x="-535" y="740" width="90" height="80" as="geometry" />
        </mxCell>
        <mxCell id="fc012hO8-HCPunmbhdEc-32" style="edgeStyle=orthogonalEdgeStyle;rounded=0;orthogonalLoop=1;jettySize=auto;html=1;" edge="1" parent="WIyWlLk6GJQsqaUBKTNV-1" source="fc012hO8-HCPunmbhdEc-23">
          <mxGeometry relative="1" as="geometry">
            <mxPoint x="-120" y="790" as="targetPoint" />
          </mxGeometry>
        </mxCell>
        <mxCell id="fc012hO8-HCPunmbhdEc-23" value="exit(0)" style="rounded=0;whiteSpace=wrap;html=1;" vertex="1" parent="WIyWlLk6GJQsqaUBKTNV-1">
          <mxGeometry x="-380" y="760" width="120" height="60" as="geometry" />
        </mxCell>
        <mxCell id="fc012hO8-HCPunmbhdEc-43" value="end" style="ellipse;whiteSpace=wrap;html=1;" vertex="1" parent="WIyWlLk6GJQsqaUBKTNV-1">
          <mxGeometry x="-380" y="900" width="120" height="80" as="geometry" />
        </mxCell>
        <mxCell id="fc012hO8-HCPunmbhdEc-44" value="" style="endArrow=classic;html=1;rounded=0;entryX=0;entryY=0.625;entryDx=0;entryDy=0;entryPerimeter=0;" edge="1" parent="WIyWlLk6GJQsqaUBKTNV-1" target="fc012hO8-HCPunmbhdEc-43">
          <mxGeometry width="50" height="50" relative="1" as="geometry">
            <mxPoint x="-490" y="940" as="sourcePoint" />
            <mxPoint x="-170" y="860" as="targetPoint" />
            <Array as="points">
              <mxPoint x="-470" y="920" />
            </Array>
          </mxGeometry>
        </mxCell>
        <mxCell id="fc012hO8-HCPunmbhdEc-45" value="" style="endArrow=classic;html=1;rounded=0;entryX=1;entryY=0.5;entryDx=0;entryDy=0;" edge="1" parent="WIyWlLk6GJQsqaUBKTNV-1" target="fc012hO8-HCPunmbhdEc-43">
          <mxGeometry width="50" height="50" relative="1" as="geometry">
            <mxPoint x="-110" y="940" as="sourcePoint" />
            <mxPoint x="-170" y="860" as="targetPoint" />
          </mxGeometry>
        </mxCell>
        <mxCell id="fc012hO8-HCPunmbhdEc-48" style="edgeStyle=orthogonalEdgeStyle;rounded=0;orthogonalLoop=1;jettySize=auto;html=1;entryX=0.5;entryY=0;entryDx=0;entryDy=0;" edge="1" parent="WIyWlLk6GJQsqaUBKTNV-1" source="fc012hO8-HCPunmbhdEc-46" target="fc012hO8-HCPunmbhdEc-47">
          <mxGeometry relative="1" as="geometry" />
        </mxCell>
        <mxCell id="fc012hO8-HCPunmbhdEc-46" value="struct&amp;nbsp; book" style="ellipse;whiteSpace=wrap;html=1;" vertex="1" parent="WIyWlLk6GJQsqaUBKTNV-1">
          <mxGeometry x="-565" y="970" width="120" height="80" as="geometry" />
        </mxCell>
        <mxCell id="fc012hO8-HCPunmbhdEc-50" style="edgeStyle=orthogonalEdgeStyle;rounded=0;orthogonalLoop=1;jettySize=auto;html=1;exitX=0.5;exitY=1;exitDx=0;exitDy=0;" edge="1" parent="WIyWlLk6GJQsqaUBKTNV-1" source="fc012hO8-HCPunmbhdEc-47" target="fc012hO8-HCPunmbhdEc-49">
          <mxGeometry relative="1" as="geometry" />
        </mxCell>
        <mxCell id="fc012hO8-HCPunmbhdEc-47" value="masach,tensach,tacgia,giatien,theloai" style="shape=parallelogram;perimeter=parallelogramPerimeter;whiteSpace=wrap;html=1;fixedSize=1;" vertex="1" parent="WIyWlLk6GJQsqaUBKTNV-1">
          <mxGeometry x="-565" y="1110" width="345" height="60" as="geometry" />
        </mxCell>
        <mxCell id="fc012hO8-HCPunmbhdEc-49" value="end" style="ellipse;whiteSpace=wrap;html=1;" vertex="1" parent="WIyWlLk6GJQsqaUBKTNV-1">
          <mxGeometry x="-452" y="1210" width="120" height="80" as="geometry" />
        </mxCell>
        <mxCell id="fc012hO8-HCPunmbhdEc-53" style="edgeStyle=orthogonalEdgeStyle;rounded=0;orthogonalLoop=1;jettySize=auto;html=1;exitX=0.5;exitY=1;exitDx=0;exitDy=0;entryX=0.5;entryY=0;entryDx=0;entryDy=0;" edge="1" parent="WIyWlLk6GJQsqaUBKTNV-1" source="fc012hO8-HCPunmbhdEc-51" target="fc012hO8-HCPunmbhdEc-52">
          <mxGeometry relative="1" as="geometry" />
        </mxCell>
        <mxCell id="fc012hO8-HCPunmbhdEc-51" value="input sach" style="ellipse;whiteSpace=wrap;html=1;" vertex="1" parent="WIyWlLk6GJQsqaUBKTNV-1">
          <mxGeometry x="-170" y="960" width="120" height="80" as="geometry" />
        </mxCell>
        <mxCell id="fc012hO8-HCPunmbhdEc-54" style="edgeStyle=orthogonalEdgeStyle;rounded=0;orthogonalLoop=1;jettySize=auto;html=1;" edge="1" parent="WIyWlLk6GJQsqaUBKTNV-1" source="fc012hO8-HCPunmbhdEc-52">
          <mxGeometry relative="1" as="geometry">
            <mxPoint x="-110" y="1210" as="targetPoint" />
          </mxGeometry>
        </mxCell>
        <mxCell id="fc012hO8-HCPunmbhdEc-52" value="books,*n" style="shape=parallelogram;perimeter=parallelogramPerimeter;whiteSpace=wrap;html=1;fixedSize=1;" vertex="1" parent="WIyWlLk6GJQsqaUBKTNV-1">
          <mxGeometry x="-170" y="1090" width="120" height="50" as="geometry" />
        </mxCell>
        <mxCell id="fc012hO8-HCPunmbhdEc-56" value="true" style="edgeStyle=orthogonalEdgeStyle;rounded=0;orthogonalLoop=1;jettySize=auto;html=1;" edge="1" parent="WIyWlLk6GJQsqaUBKTNV-1" source="fc012hO8-HCPunmbhdEc-55">
          <mxGeometry relative="1" as="geometry">
            <mxPoint x="30" y="1240" as="targetPoint" />
          </mxGeometry>
        </mxCell>
        <mxCell id="fc012hO8-HCPunmbhdEc-59" value="false" style="edgeStyle=orthogonalEdgeStyle;rounded=0;orthogonalLoop=1;jettySize=auto;html=1;exitX=0;exitY=0.5;exitDx=0;exitDy=0;" edge="1" parent="WIyWlLk6GJQsqaUBKTNV-1" source="fc012hO8-HCPunmbhdEc-55">
          <mxGeometry relative="1" as="geometry">
            <mxPoint x="-180" y="1350" as="targetPoint" />
          </mxGeometry>
        </mxCell>
        <mxCell id="fc012hO8-HCPunmbhdEc-55" value="i=0;i&amp;lt;n;i++" style="rhombus;whiteSpace=wrap;html=1;" vertex="1" parent="WIyWlLk6GJQsqaUBKTNV-1">
          <mxGeometry x="-155" y="1210" width="90" height="80" as="geometry" />
        </mxCell>
        <mxCell id="fc012hO8-HCPunmbhdEc-58" style="edgeStyle=orthogonalEdgeStyle;rounded=0;orthogonalLoop=1;jettySize=auto;html=1;entryX=0.5;entryY=1;entryDx=0;entryDy=0;" edge="1" parent="WIyWlLk6GJQsqaUBKTNV-1" source="fc012hO8-HCPunmbhdEc-57" target="fc012hO8-HCPunmbhdEc-55">
          <mxGeometry relative="1" as="geometry">
            <mxPoint x="50" y="1380" as="targetPoint" />
            <Array as="points">
              <mxPoint x="90" y="1320" />
              <mxPoint x="51" y="1320" />
              <mxPoint x="51" y="1290" />
            </Array>
          </mxGeometry>
        </mxCell>
        <mxCell id="fc012hO8-HCPunmbhdEc-57" value="nhap thong tin&amp;nbsp; books" style="rounded=0;whiteSpace=wrap;html=1;" vertex="1" parent="WIyWlLk6GJQsqaUBKTNV-1">
          <mxGeometry x="30" y="1210" width="120" height="50" as="geometry" />
        </mxCell>
        <mxCell id="fc012hO8-HCPunmbhdEc-61" style="edgeStyle=orthogonalEdgeStyle;rounded=0;orthogonalLoop=1;jettySize=auto;html=1;" edge="1" parent="WIyWlLk6GJQsqaUBKTNV-1" source="fc012hO8-HCPunmbhdEc-60">
          <mxGeometry relative="1" as="geometry">
            <mxPoint x="-160" y="1450" as="targetPoint" />
          </mxGeometry>
        </mxCell>
        <mxCell id="fc012hO8-HCPunmbhdEc-60" value="xuat ket qua&amp;nbsp;&amp;nbsp;" style="shape=parallelogram;perimeter=parallelogramPerimeter;whiteSpace=wrap;html=1;fixedSize=1;" vertex="1" parent="WIyWlLk6GJQsqaUBKTNV-1">
          <mxGeometry x="-220" y="1350" width="120" height="60" as="geometry" />
        </mxCell>
        <mxCell id="fc012hO8-HCPunmbhdEc-62" value="end" style="ellipse;whiteSpace=wrap;html=1;" vertex="1" parent="WIyWlLk6GJQsqaUBKTNV-1">
          <mxGeometry x="-210" y="1450" width="120" height="80" as="geometry" />
        </mxCell>
        <mxCell id="fc012hO8-HCPunmbhdEc-66" style="edgeStyle=orthogonalEdgeStyle;rounded=0;orthogonalLoop=1;jettySize=auto;html=1;exitX=0.5;exitY=1;exitDx=0;exitDy=0;entryX=0.5;entryY=0;entryDx=0;entryDy=0;" edge="1" parent="WIyWlLk6GJQsqaUBKTNV-1" source="fc012hO8-HCPunmbhdEc-64" target="fc012hO8-HCPunmbhdEc-65">
          <mxGeometry relative="1" as="geometry" />
        </mxCell>
        <mxCell id="fc012hO8-HCPunmbhdEc-64" value="luuthongtinsach" style="ellipse;whiteSpace=wrap;html=1;" vertex="1" parent="WIyWlLk6GJQsqaUBKTNV-1">
          <mxGeometry x="-500" y="1510" width="120" height="80" as="geometry" />
        </mxCell>
        <mxCell id="fc012hO8-HCPunmbhdEc-68" style="edgeStyle=orthogonalEdgeStyle;rounded=0;orthogonalLoop=1;jettySize=auto;html=1;" edge="1" parent="WIyWlLk6GJQsqaUBKTNV-1" source="fc012hO8-HCPunmbhdEc-65">
          <mxGeometry relative="1" as="geometry">
            <mxPoint x="-440" y="1740" as="targetPoint" />
          </mxGeometry>
        </mxCell>
        <mxCell id="fc012hO8-HCPunmbhdEc-65" value="books,n" style="shape=parallelogram;perimeter=parallelogramPerimeter;whiteSpace=wrap;html=1;fixedSize=1;" vertex="1" parent="WIyWlLk6GJQsqaUBKTNV-1">
          <mxGeometry x="-500" y="1640" width="120" height="50" as="geometry" />
        </mxCell>
        <mxCell id="fc012hO8-HCPunmbhdEc-71" style="edgeStyle=orthogonalEdgeStyle;rounded=0;orthogonalLoop=1;jettySize=auto;html=1;exitX=0.5;exitY=1;exitDx=0;exitDy=0;entryX=0.5;entryY=0;entryDx=0;entryDy=0;" edge="1" parent="WIyWlLk6GJQsqaUBKTNV-1" source="fc012hO8-HCPunmbhdEc-69" target="fc012hO8-HCPunmbhdEc-70">
          <mxGeometry relative="1" as="geometry" />
        </mxCell>
        <mxCell id="fc012hO8-HCPunmbhdEc-69" value="tao file bang fopen" style="rounded=0;whiteSpace=wrap;html=1;" vertex="1" parent="WIyWlLk6GJQsqaUBKTNV-1">
          <mxGeometry x="-500" y="1740" width="120" height="60" as="geometry" />
        </mxCell>
        <mxCell id="fc012hO8-HCPunmbhdEc-73" style="edgeStyle=orthogonalEdgeStyle;rounded=0;orthogonalLoop=1;jettySize=auto;html=1;" edge="1" parent="WIyWlLk6GJQsqaUBKTNV-1" source="fc012hO8-HCPunmbhdEc-70">
          <mxGeometry relative="1" as="geometry">
            <mxPoint x="-280" y="1880" as="targetPoint" />
          </mxGeometry>
        </mxCell>
        <mxCell id="fc012hO8-HCPunmbhdEc-74" value="true" style="edgeLabel;html=1;align=center;verticalAlign=middle;resizable=0;points=[];" vertex="1" connectable="0" parent="fc012hO8-HCPunmbhdEc-73">
          <mxGeometry x="-0.054" y="-1" relative="1" as="geometry">
            <mxPoint as="offset" />
          </mxGeometry>
        </mxCell>
        <mxCell id="fc012hO8-HCPunmbhdEc-78" value="false" style="edgeStyle=orthogonalEdgeStyle;rounded=0;orthogonalLoop=1;jettySize=auto;html=1;" edge="1" parent="WIyWlLk6GJQsqaUBKTNV-1" source="fc012hO8-HCPunmbhdEc-70">
          <mxGeometry relative="1" as="geometry">
            <mxPoint x="-520" y="2020" as="targetPoint" />
          </mxGeometry>
        </mxCell>
        <mxCell id="fc012hO8-HCPunmbhdEc-70" value="i=0;i&amp;lt;n;i++" style="rhombus;whiteSpace=wrap;html=1;" vertex="1" parent="WIyWlLk6GJQsqaUBKTNV-1">
          <mxGeometry x="-480" y="1840" width="80" height="80" as="geometry" />
        </mxCell>
        <mxCell id="fc012hO8-HCPunmbhdEc-75" value="fpriintf(file,kieu dulieu,books)" style="rounded=0;whiteSpace=wrap;html=1;" vertex="1" parent="WIyWlLk6GJQsqaUBKTNV-1">
          <mxGeometry x="-275" y="1850" width="175" height="60" as="geometry" />
        </mxCell>
        <mxCell id="fc012hO8-HCPunmbhdEc-80" style="edgeStyle=orthogonalEdgeStyle;rounded=0;orthogonalLoop=1;jettySize=auto;html=1;" edge="1" parent="WIyWlLk6GJQsqaUBKTNV-1" source="fc012hO8-HCPunmbhdEc-79">
          <mxGeometry relative="1" as="geometry">
            <mxPoint x="-510" y="2100" as="targetPoint" />
          </mxGeometry>
        </mxCell>
        <mxCell id="fc012hO8-HCPunmbhdEc-79" value="xuat ket qua" style="shape=parallelogram;perimeter=parallelogramPerimeter;whiteSpace=wrap;html=1;fixedSize=1;" vertex="1" parent="WIyWlLk6GJQsqaUBKTNV-1">
          <mxGeometry x="-570" y="2020" width="120" height="40" as="geometry" />
        </mxCell>
        <mxCell id="fc012hO8-HCPunmbhdEc-81" value="end" style="ellipse;whiteSpace=wrap;html=1;" vertex="1" parent="WIyWlLk6GJQsqaUBKTNV-1">
          <mxGeometry x="-570" y="2100" width="120" height="80" as="geometry" />
        </mxCell>
        <mxCell id="fc012hO8-HCPunmbhdEc-83" value="" style="endArrow=classic;html=1;rounded=0;exitX=0.314;exitY=1.05;exitDx=0;exitDy=0;exitPerimeter=0;" edge="1" parent="WIyWlLk6GJQsqaUBKTNV-1" source="fc012hO8-HCPunmbhdEc-75" target="fc012hO8-HCPunmbhdEc-70">
          <mxGeometry width="50" height="50" relative="1" as="geometry">
            <mxPoint x="-220" y="2110" as="sourcePoint" />
            <mxPoint x="-170" y="2060" as="targetPoint" />
            <Array as="points">
              <mxPoint x="-220" y="1950" />
              <mxPoint x="-360" y="1950" />
            </Array>
          </mxGeometry>
        </mxCell>
        <mxCell id="fc012hO8-HCPunmbhdEc-85" style="edgeStyle=orthogonalEdgeStyle;rounded=0;orthogonalLoop=1;jettySize=auto;html=1;exitX=0.5;exitY=1;exitDx=0;exitDy=0;entryX=0.5;entryY=0;entryDx=0;entryDy=0;" edge="1" parent="WIyWlLk6GJQsqaUBKTNV-1" target="fc012hO8-HCPunmbhdEc-88">
          <mxGeometry relative="1" as="geometry">
            <mxPoint x="460" y="1550" as="sourcePoint" />
          </mxGeometry>
        </mxCell>
        <mxCell id="fc012hO8-HCPunmbhdEc-87" style="edgeStyle=orthogonalEdgeStyle;rounded=0;orthogonalLoop=1;jettySize=auto;html=1;" edge="1" parent="WIyWlLk6GJQsqaUBKTNV-1" source="fc012hO8-HCPunmbhdEc-88">
          <mxGeometry relative="1" as="geometry">
            <mxPoint x="460" y="1700" as="targetPoint" />
          </mxGeometry>
        </mxCell>
        <mxCell id="fc012hO8-HCPunmbhdEc-88" value="books,n" style="shape=parallelogram;perimeter=parallelogramPerimeter;whiteSpace=wrap;html=1;fixedSize=1;" vertex="1" parent="WIyWlLk6GJQsqaUBKTNV-1">
          <mxGeometry x="400" y="1600" width="120" height="50" as="geometry" />
        </mxCell>
        <mxCell id="fc012hO8-HCPunmbhdEc-89" style="edgeStyle=orthogonalEdgeStyle;rounded=0;orthogonalLoop=1;jettySize=auto;html=1;exitX=0.5;exitY=1;exitDx=0;exitDy=0;entryX=0.5;entryY=0;entryDx=0;entryDy=0;" edge="1" parent="WIyWlLk6GJQsqaUBKTNV-1" source="fc012hO8-HCPunmbhdEc-90" target="fc012hO8-HCPunmbhdEc-94">
          <mxGeometry relative="1" as="geometry" />
        </mxCell>
        <mxCell id="fc012hO8-HCPunmbhdEc-90" value="lau file ra" style="rounded=0;whiteSpace=wrap;html=1;" vertex="1" parent="WIyWlLk6GJQsqaUBKTNV-1">
          <mxGeometry x="400" y="1700" width="120" height="60" as="geometry" />
        </mxCell>
        <mxCell id="fc012hO8-HCPunmbhdEc-91" style="edgeStyle=orthogonalEdgeStyle;rounded=0;orthogonalLoop=1;jettySize=auto;html=1;" edge="1" parent="WIyWlLk6GJQsqaUBKTNV-1" source="fc012hO8-HCPunmbhdEc-94">
          <mxGeometry relative="1" as="geometry">
            <mxPoint x="620" y="1840" as="targetPoint" />
          </mxGeometry>
        </mxCell>
        <mxCell id="fc012hO8-HCPunmbhdEc-92" value="true" style="edgeLabel;html=1;align=center;verticalAlign=middle;resizable=0;points=[];" vertex="1" connectable="0" parent="fc012hO8-HCPunmbhdEc-91">
          <mxGeometry x="-0.054" y="-1" relative="1" as="geometry">
            <mxPoint as="offset" />
          </mxGeometry>
        </mxCell>
        <mxCell id="fc012hO8-HCPunmbhdEc-93" value="false" style="edgeStyle=orthogonalEdgeStyle;rounded=0;orthogonalLoop=1;jettySize=auto;html=1;" edge="1" parent="WIyWlLk6GJQsqaUBKTNV-1" source="fc012hO8-HCPunmbhdEc-94">
          <mxGeometry relative="1" as="geometry">
            <mxPoint x="380" y="1980" as="targetPoint" />
          </mxGeometry>
        </mxCell>
        <mxCell id="fc012hO8-HCPunmbhdEc-94" value="i=0;i&amp;lt;n;i++" style="rhombus;whiteSpace=wrap;html=1;" vertex="1" parent="WIyWlLk6GJQsqaUBKTNV-1">
          <mxGeometry x="420" y="1800" width="80" height="80" as="geometry" />
        </mxCell>
        <mxCell id="fc012hO8-HCPunmbhdEc-95" value="fscanf(file,kieu du lieu,books)&lt;br&gt;print;" style="rounded=0;whiteSpace=wrap;html=1;" vertex="1" parent="WIyWlLk6GJQsqaUBKTNV-1">
          <mxGeometry x="625" y="1810" width="175" height="60" as="geometry" />
        </mxCell>
        <mxCell id="fc012hO8-HCPunmbhdEc-96" style="edgeStyle=orthogonalEdgeStyle;rounded=0;orthogonalLoop=1;jettySize=auto;html=1;" edge="1" parent="WIyWlLk6GJQsqaUBKTNV-1" source="fc012hO8-HCPunmbhdEc-97">
          <mxGeometry relative="1" as="geometry">
            <mxPoint x="390" y="2060" as="targetPoint" />
          </mxGeometry>
        </mxCell>
        <mxCell id="fc012hO8-HCPunmbhdEc-97" value="xuat ket qua" style="shape=parallelogram;perimeter=parallelogramPerimeter;whiteSpace=wrap;html=1;fixedSize=1;" vertex="1" parent="WIyWlLk6GJQsqaUBKTNV-1">
          <mxGeometry x="330" y="1980" width="120" height="40" as="geometry" />
        </mxCell>
        <mxCell id="fc012hO8-HCPunmbhdEc-98" value="end" style="ellipse;whiteSpace=wrap;html=1;" vertex="1" parent="WIyWlLk6GJQsqaUBKTNV-1">
          <mxGeometry x="330" y="2060" width="120" height="80" as="geometry" />
        </mxCell>
        <mxCell id="fc012hO8-HCPunmbhdEc-99" value="" style="endArrow=classic;html=1;rounded=0;exitX=0.314;exitY=1.05;exitDx=0;exitDy=0;exitPerimeter=0;" edge="1" parent="WIyWlLk6GJQsqaUBKTNV-1" source="fc012hO8-HCPunmbhdEc-95" target="fc012hO8-HCPunmbhdEc-94">
          <mxGeometry width="50" height="50" relative="1" as="geometry">
            <mxPoint x="680" y="2070" as="sourcePoint" />
            <mxPoint x="730" y="2020" as="targetPoint" />
            <Array as="points">
              <mxPoint x="680" y="1910" />
              <mxPoint x="540" y="1910" />
            </Array>
          </mxGeometry>
        </mxCell>
        <mxCell id="fc012hO8-HCPunmbhdEc-100" value="hienthithongtinsacj" style="ellipse;whiteSpace=wrap;html=1;" vertex="1" parent="WIyWlLk6GJQsqaUBKTNV-1">
          <mxGeometry x="400" y="1470" width="120" height="80" as="geometry" />
        </mxCell>
      </root>
    </mxGraphModel>
  </diagram>
</mxfile>
